<svg width="1921" height="984" viewBox="0 0 1921 984" fill="none" xmlns="http://www.w3.org/2000/svg">
<path d="M7.39062 830.414V792.36H193.829V830.414H121.279V984H79.6662V830.414H7.39062Z" fill="#D22713"/>
<path d="M306.173 830.414C371.331 830.414 375.437 884.895 375.437 907.344V984H334.098V907.344C334.098 895.298 334.098 866.278 294.127 866.278C258.263 866.278 250.324 889.275 250.324 910.082V984H208.711V786.337H250.324V853.137H252.24C262.096 839.449 278.796 830.414 306.173 830.414Z" fill="#D22713"/>
<path d="M426.744 916.926C429.755 937.459 442.075 947.588 468.905 947.588C493.818 947.588 506.138 940.744 509.97 930.615H550.215C546.108 963.741 519.279 984 468.905 984C416.341 984 386.5 957.718 386.5 906.523C386.5 856.423 417.162 829.045 468.905 829.045C490.533 829.045 508.054 834.521 520.921 843.555V843.282C550.489 863.541 553.226 895.846 551.036 916.926H426.744ZM468.905 865.457C445.908 865.457 433.315 873.944 428.387 889.549H509.423C506.138 878.05 498.472 865.457 468.905 865.457Z" fill="#D22713"/>
<path d="M664.714 872.849H762.998V982.631H721.385V952.79H719.195C712.35 970.038 694.008 984 665.809 984C610.781 984 566.43 950.874 566.43 886.811C566.43 823.844 610.781 789.349 665.809 789.349C715.636 789.349 754.511 816.999 761.903 853.685H716.183C708.244 839.175 692.091 831.783 665.809 831.783C633.23 831.783 607.77 848.757 607.77 886.811C607.77 924.865 633.23 941.565 665.809 941.565C697.567 941.565 713.719 930.341 719.468 911.998H664.714V872.849Z" fill="#D22713"/>
<path d="M860.916 827.677C907.731 827.677 946.607 852.59 946.607 905.975C946.607 959.908 907.731 984 860.916 984C814.375 984 775.5 959.087 775.5 905.975C775.5 853.137 814.375 827.677 860.916 827.677ZM860.916 946.219C887.198 946.219 905.815 933.626 905.815 905.975C905.815 877.503 887.198 865.731 860.916 865.731C834.908 865.731 816.292 876.955 816.292 905.975C816.292 934.721 834.908 946.219 860.916 946.219Z" fill="#D22713"/>
<path d="M1087.88 786.337H1129.5V984H1087.88V962.646H1085.97C1075.56 976.061 1058.04 984 1029.02 984C964.688 984 957.57 927.877 957.57 907.344C957.57 884.895 964.415 830.414 1029.3 830.414C1057.77 830.414 1075.02 839.449 1085.42 853.137H1087.88V786.337ZM1041.34 948.41C1077.21 948.41 1084.6 930.615 1084.6 907.344C1084.6 886.537 1077.21 866.278 1041.34 866.278C1001.37 866.278 997.267 895.298 997.267 907.344C997.267 918.295 1001.65 948.41 1041.34 948.41Z" fill="#D22713"/>
<path d="M1308.99 792.36H1368.67V984H1327.06V841.365H1322.95L1286.54 984H1226.58L1190.17 841.365H1186.06V984H1144.45V792.36H1205.78V792.634H1215.9L1253.96 945.946H1257.79L1296.12 792.634H1308.99V792.36Z" fill="#D22713"/>
<path d="M1466.48 827.677C1513.29 827.677 1552.17 852.59 1552.17 905.975C1552.17 959.908 1513.29 984 1466.48 984C1419.93 984 1381.06 959.087 1381.06 905.975C1381.06 853.137 1419.93 827.677 1466.48 827.677ZM1466.48 946.219C1492.76 946.219 1511.37 933.626 1511.37 905.975C1511.37 877.503 1492.76 865.731 1466.48 865.731C1440.47 865.731 1421.85 876.955 1421.85 905.975C1421.85 934.721 1440.47 946.219 1466.48 946.219Z" fill="#D22713"/>
<path d="M1693.44 786.337H1735.06V984H1693.44V962.646H1691.53C1681.12 976.061 1663.6 984 1634.58 984C1570.25 984 1563.13 927.877 1563.13 907.344C1563.13 884.895 1569.97 830.414 1634.86 830.414C1663.33 830.414 1680.58 839.449 1690.98 853.137H1693.44V786.337ZM1646.9 948.41C1682.77 948.41 1690.16 930.615 1690.16 907.344C1690.16 886.537 1682.77 866.278 1646.9 866.278C1606.93 866.278 1602.82 895.298 1602.82 907.344C1602.82 918.295 1607.2 948.41 1646.9 948.41Z" fill="#D22713"/>
<path d="M1787.58 916.926C1790.59 937.459 1802.91 947.588 1829.74 947.588C1854.65 947.588 1866.97 940.744 1870.81 930.615H1911.05C1906.94 963.741 1880.11 984 1829.74 984C1777.18 984 1747.34 957.718 1747.34 906.523C1747.34 856.423 1778 829.045 1829.74 829.045C1851.37 829.045 1868.89 834.521 1881.76 843.555V843.282C1911.32 863.541 1914.06 895.846 1911.87 916.926H1787.58ZM1829.74 865.457C1806.74 865.457 1794.15 873.944 1789.22 889.549H1870.26C1866.97 878.05 1859.31 865.457 1829.74 865.457Z" fill="#D22713"/>
<path d="M305.729 0C474.353 0.000263543 611.091 136.514 611.455 305.054H611.456V305.399C611.456 305.509 611.457 305.62 611.457 305.729C611.457 305.839 611.456 305.949 611.456 306.059V611.457H306.402V611.454C306.178 611.455 305.954 611.457 305.729 611.457C136.88 611.457 0.000263959 474.578 0 305.729C0 136.879 136.879 0 305.729 0ZM960.378 0C1129.23 0.000263892 1266.11 136.88 1266.11 305.729C1266.11 474.578 1129.23 611.457 960.378 611.457C791.529 611.457 654.649 474.578 654.648 305.729C654.648 136.879 791.529 0 960.378 0ZM1920.76 305.054L1920.76 305.053C1920.76 305.278 1920.76 305.503 1920.76 305.728C1920.76 474.577 1783.88 611.457 1615.03 611.457C1446.18 611.457 1309.3 474.578 1309.3 305.729C1309.3 137.106 1445.81 0.368445 1614.35 0.00195312V0H1920.76V305.054Z" fill="#D22713"/>
</svg>
